<?xml version="1.0" encoding="UTF-8" standalone="no"?>

<svg xmlns="http://www.w3.org/2000/svg" viewBox="0 0 26.458333 52.916667">
   <path
      d="m 17.807507,26.37791 v -6.949013 q -1.063624,-0.354542 -2.269066,-0.567267 -1.134532,-0.212725 -2.269065,-0.212725 -1.134533,0 -2.339974,0.212725 -1.134533,0.212725 -2.1981575,0.567267 V 26.37791 H 0.08043157 V 17.301647 H 7.1712618 q 0.2836332,-0.992716 0.4254498,-1.985432 0.2127249,-1.063625 0.2127249,-2.127249 0,-1.063625 -0.2127249,-2.056341 Q 7.454895,10.069001 7.1712618,9.0762844 H 0.08043157 V 2.1690369e-5 H 8.7312445 V 6.878127 q 1.0636245,0.4254498 2.1981575,0.6381747 1.205441,0.1418166 2.339974,0.1418166 1.134533,0 2.269065,-0.1418166 1.205442,-0.2127249 2.269066,-0.6381747 V 2.1690369e-5 H 26.45832 V 9.0762844 h -7.09083 q -0.283633,0.9927166 -0.42545,2.0563406 -0.141817,0.992716 -0.141817,2.056341 0,1.063624 0.141817,2.127249 0.141817,0.992716 0.42545,1.985432 h 7.09083 v 9.076263 z" />
</svg>