<svg xmlns="http://www.w3.org/2000/svg" viewBox="0 0 26.458333 52.916667">
   <path
      d="M 1.9863021,51.306449 V 1.527715 h 4.0772313 v 18.317114 q 0.5476878,-0.182563 1.0953756,-0.304271 0.5476878,-0.121709 1.0953756,-0.121709 1.0345214,0 2.0081884,0.42598 1.034522,0.365125 1.825626,1.095375 V 1.527715 h 4.077231 v 18.317114 q 0.547688,-0.182563 1.095376,-0.304271 0.547688,-0.121709 1.095376,-0.121709 1.217083,0 2.373313,0.608542 1.15623,0.547688 1.947335,1.521355 0.791104,0.973667 1.217084,2.129897 0.486833,1.15623 0.73025,2.373314 0.304271,1.217084 0.365125,2.495022 0.121709,1.217084 0.121709,2.434168 0,2.129897 -0.486834,4.19894 -0.425979,2.008188 -1.399647,3.894668 -0.912813,1.825626 -2.251605,3.46869 -1.338792,1.582209 -2.799293,3.103564 -1.460501,1.460501 -2.981856,2.860147 -1.521355,1.460501 -3.103564,2.799293 V 40.900381 q -1.034521,1.521355 -2.2516053,2.860148 -1.2170839,1.338792 -2.4950221,2.61673 -1.2779382,1.277938 -2.6167305,2.495022 -1.3387924,1.277939 -2.738439,2.434168 z m 4.0772313,-9.006421 q 1.0953756,-1.15623 2.0690428,-2.434168 0.9736672,-1.277938 1.5822091,-2.677585 0.6693967,-1.4605 0.9128127,-3.04271 0.304271,-1.582209 0.304271,-3.164418 0,-0.547688 -0.06085,-1.095376 0,-0.547687 -0.06085,-1.095375 0,-0.547688 -0.06085,-1.095376 -0.06085,-0.608542 -0.182563,-1.095375 -0.121708,-0.547688 -0.304271,-1.095376 -0.121708,-0.547688 -0.3651251,-1.034521 -0.2434168,-0.547688 -0.6693961,-0.912813 -0.4259794,-0.42598 -0.9736672,-0.42598 -0.6693962,0 -1.2779382,0.42598 -0.608542,0.425979 -0.912813,1.034521 z m 10.1017966,0 q 1.095376,-1.15623 2.008189,-2.434168 0.973667,-1.277938 1.643063,-2.677585 0.669396,-1.4605 0.912813,-3.04271 0.243417,-1.582209 0.243417,-3.164418 0,-0.547688 0,-1.095376 0,-0.547687 -0.06085,-1.095375 0,-0.547688 -0.06085,-1.095376 -0.06086,-0.608542 -0.182563,-1.095375 -0.121708,-0.547688 -0.304271,-1.095376 -0.121708,-0.547688 -0.365125,-1.034521 -0.243417,-0.547688 -0.669396,-0.912813 -0.42598,-0.42598 -0.973667,-0.42598 -0.730251,0 -1.338793,0.42598 -0.547688,0.425979 -0.851959,1.034521 z" />
</svg>
