<svg xmlns="http://www.w3.org/2000/svg" viewBox="0 0 6.614583 13.229166">
    <path
        d="M 35.07594,23.384578 V 9.5337107 h 1.30381 v 5.1136453 q 0.32172,-0.152393 0.677304,-0.237056 0.372518,-0.08466 0.728102,-0.08466 0.38945,0 0.7789,0.08466 0.38945,0.06773 0.728102,0.270921 0.355584,0.186259 0.609573,0.491046 0.270922,0.287854 0.440248,0.643438 0.169326,0.355585 0.220124,0.745035 0.06773,0.38945 0.06773,0.795832 0,0.711169 -0.253989,1.405406 -0.237056,0.677304 -0.694237,1.23608 -0.45718,0.558775 -1.032888,0.999023 -0.558776,0.440248 -1.16835,0.829697 -0.592641,0.38945 -1.202214,0.7789 -0.609574,0.38945 -1.202215,0.7789 z m 1.30381,-2.218171 q 0.541844,-0.321719 1.066754,-0.677304 0.524911,-0.372517 0.948226,-0.829697 0.440247,-0.474113 0.677304,-1.066754 0.253989,-0.609574 0.253989,-1.23608 0,-0.355585 -0.08466,-0.694237 -0.06773,-0.338652 -0.270922,-0.609573 -0.203191,-0.270922 -0.52491,-0.406383 -0.32172,-0.152393 -0.660372,-0.152393 -0.38945,0 -0.761967,0.169326 -0.372517,0.169326 -0.643439,0.474113 z"
        transform="matrix(0.90629105,0,0,0.90629105,-30.915799,-8.2903256)" />
</svg>
