<svg xmlns="http://www.w3.org/2000/svg" viewBox="0 0 19.843749 26.458333">
    <path
        d="m 16.621094,43.905429 c 6.582031,0 10.351562,-2.851562 10.351562,-7.8125 0,-4.003906 -2.558594,-6.542968 -6.367187,-7.207031 v -0.410156 c 3.4375,-0.917969 5.78125,-3.535156 5.78125,-6.875 0,-3.984375 -2.871094,-6.210938 -7.929688,-6.210938 -3.886718,0 -7.03125,1.171875 -9.4335935,3.886719 l 2.6953125,2.675781 c 1.972656,-1.972656 4.316406,-2.96875 6.308594,-2.96875 2.734375,0 4.257812,1.328125 4.257812,3.59375 0,2.832032 -2.597656,4.882813 -8.75,5.703125 l 0.46875,2.539063 h 0.625 c 5.253906,0 8.242188,1.757812 8.242188,4.882812 0,2.929688 -2.34375,4.609375 -6.40625,4.609375 -3.046875,0 -4.882813,-0.625 -6.464844,-1.074218 l -0.4882812,3.730468 c 1.8359372,0.566407 4.2382812,0.9375 7.1093752,0.9375 z"
        transform="matrix(0.90629105,0,0,0.90629105,-6.6660092,-13.640204)" />
</svg>